<svg width="45" height="46" xmlns="http://www.w3.org/2000/svg" xmlns:xlink="http://www.w3.org/1999/xlink" xml:space="preserve" overflow="hidden"><g transform="translate(-880 -468)"><g><path d="M10.7812 3.79688C9.98438 3.79688 9.375 4.40625 9.375 5.20312L9.375 41.2969 12.1875 41.2969 12.1875 5.20312C12.1875 4.40625 11.5781 3.79688 10.7812 3.79688Z" fill="#E5007F" fill-rule="nonzero" fill-opacity="1" transform="matrix(1 0 0 1.02222 880 468)"/><path d="M20.0156 3.70312C15.8906 3.70312 14.0625 5.0625 14.0625 5.0625L14.0625 20.5781C14.0625 20.5781 15.8438 19.2188 20.0156 19.2188 24.9844 19.2188 29.8594 21.9375 35.625 19.3125L35.625 3.79688C28.3594 5.95312 24.9844 3.70312 20.0156 3.70312Z" fill="#E5007F" fill-rule="nonzero" fill-opacity="1" transform="matrix(1 0 0 1.02222 880 468)"/></g></g></svg>