<svg width="28" height="27" xmlns="http://www.w3.org/2000/svg" xmlns:xlink="http://www.w3.org/1999/xlink" xml:space="preserve" overflow="hidden"><g transform="translate(-460 -610)"><g><g><g><g><path d="M23.2917 5.95833 23.2917 19.2292 2.70833 19.2292 2.70833 5.95833 1.08333 5.95833 1.08333 21.125 10.5625 21.125C10.5625 21.5854 10.9146 21.9375 11.375 21.9375L14.625 21.9375C15.0854 21.9375 15.4375 21.5854 15.4375 21.125L24.9167 21.125 24.9167 5.95833 23.2917 5.95833Z" stroke="#E5007F" stroke-width="0.270866" stroke-linecap="butt" stroke-linejoin="miter" stroke-miterlimit="4" stroke-opacity="1" fill="#E5007F" fill-rule="nonzero" fill-opacity="1" transform="matrix(1.03846 0 0 1 461 611)"/><path d="M22.2083 4.33333 3.79167 4.33333 3.79167 18.1458 22.2083 18.1458 22.2083 4.33333ZM5.41667 5.95833 12.4583 5.95833 12.4583 16.5208 5.41667 16.5208 5.41667 5.95833ZM20.5833 16.5208 13.5417 16.5208 13.5417 5.95833 20.5833 5.95833 20.5833 16.5208Z" stroke="#E5007F" stroke-width="0.270866" stroke-linecap="butt" stroke-linejoin="miter" stroke-miterlimit="4" stroke-opacity="1" fill="#E5007F" fill-rule="nonzero" fill-opacity="1" transform="matrix(1.03846 0 0 1 461 611)"/><path d="M15.1667 8.66667 18.9583 8.66667 18.9583 9.47917 15.1667 9.47917Z" stroke="#E5007F" stroke-width="0.270866" stroke-linecap="butt" stroke-linejoin="miter" stroke-miterlimit="4" stroke-opacity="1" fill="#E5007F" fill-rule="nonzero" fill-opacity="1" transform="matrix(1.03846 0 0 1 461 611)"/><path d="M15.1667 10.2917 18.9583 10.2917 18.9583 11.1042 15.1667 11.1042Z" stroke="#E5007F" stroke-width="0.270866" stroke-linecap="butt" stroke-linejoin="miter" stroke-miterlimit="4" stroke-opacity="1" fill="#E5007F" fill-rule="nonzero" fill-opacity="1" transform="matrix(1.03846 0 0 1 461 611)"/><path d="M15.1667 11.9167 17.7938 11.9167 17.7938 12.7292 15.1667 12.7292Z" stroke="#E5007F" stroke-width="0.270866" stroke-linecap="butt" stroke-linejoin="miter" stroke-miterlimit="4" stroke-opacity="1" fill="#E5007F" fill-rule="nonzero" fill-opacity="1" transform="matrix(1.03846 0 0 1 461 611)"/></g></g></g></g></g></svg>