<svg width="46" height="46" xmlns="http://www.w3.org/2000/svg" xmlns:xlink="http://www.w3.org/1999/xlink" xml:space="preserve" overflow="hidden"><g transform="translate(-766 -466)"><g><g><g><g><path d="M788.094 490.438C788.094 492.509 786.415 494.188 784.344 494.188 782.273 494.188 780.594 492.509 780.594 490.438 780.594 488.366 782.273 486.688 784.344 486.688 786.415 486.688 788.094 488.366 788.094 490.438Z" fill="#E5007F" fill-rule="nonzero" fill-opacity="1"/><path d="M798.406 490.438C798.406 492.509 796.727 494.188 794.656 494.188 792.585 494.188 790.906 492.509 790.906 490.438 790.906 488.366 792.585 486.688 794.656 486.688 796.727 486.688 798.406 488.366 798.406 490.438Z" fill="#E5007F" fill-rule="nonzero" fill-opacity="1"/><path d="M791.436 496.944C791.71 497.401 791.562 497.994 791.105 498.269 790.956 498.358 790.785 498.406 790.611 498.406L788.389 498.406C787.856 498.405 787.425 497.971 787.426 497.438 787.427 497.264 787.475 497.093 787.564 496.944L788.675 495.097C788.947 494.641 789.537 494.492 789.993 494.765 790.129 494.846 790.243 494.96 790.325 495.097Z" fill="#E5007F" fill-rule="nonzero" fill-opacity="1"/><path d="M789.5 471.219C781.489 471.219 774.969 478.25 774.969 486.922 774.969 490.358 775.953 493.123 778.25 496.081L778.25 498.425C778.215 500.592 779.844 502.425 782 502.644L782 506.394C782 507.17 782.63 507.8 783.406 507.8L795.594 507.8C796.37 507.8 797 507.17 797 506.394L797 502.625C799.156 502.406 800.785 500.573 800.75 498.406L800.75 496.062C803.047 493.105 804.031 490.339 804.031 486.903 804.031 478.25 797.511 471.219 789.5 471.219ZM798.252 494.708C798.048 494.958 797.937 495.271 797.938 495.594L797.938 498.406C797.956 499.165 797.356 499.794 796.598 499.812 796.576 499.813 796.553 499.813 796.531 499.812L795.594 499.812C794.817 499.812 794.188 500.442 794.188 501.219L794.188 504.969 792.312 504.969 792.312 502.156 790.438 502.156 790.438 504.969 788.562 504.969 788.562 502.156 786.688 502.156 786.688 504.969 784.812 504.969 784.812 501.219C784.812 500.442 784.183 499.812 783.406 499.812L782.469 499.812C781.71 499.831 781.081 499.231 781.062 498.473 781.062 498.451 781.062 498.428 781.062 498.406L781.062 495.594C781.063 495.271 780.952 494.958 780.748 494.708 778.639 492.106 777.781 489.852 777.781 486.922 777.781 479.816 783.036 474.031 789.5 474.031 795.964 474.031 801.219 479.816 801.219 486.922 801.219 489.852 800.361 492.106 798.252 494.708Z" fill="#E5007F" fill-rule="nonzero" fill-opacity="1"/></g></g></g></g></g></svg>